<svg height="512pt" viewBox="0 -23 512 512" width="512pt" xmlns="http://www.w3.org/2000/svg"><path d="m459.996094 15c0-4.789062-2.289063-9.292969-6.160156-12.117188-3.867188-2.8242182-8.855469-3.628906-13.417969-2.164062l-141.265625 45.277344 160.84375 48.402344zm0 0"/><path d="m497 436.992188h-55.007812v-45.996094h-59.996094v45.996094h-71.996094v-195.996094h-105v195.996094h-74.832031v-45.996094h-60v45.996094h-55.167969c-8.285156 0-15 6.71875-15 15 0 8.285156 6.714844 15 15 15h482c8.285156 0 15-6.714844 15-15 0-8.28125-6.714844-15-15-15zm-254.5 0v-62.996094c0-8.285156 6.714844-15 15-15 8.28125 0 15 6.714844 15 15v62.996094zm0 0"/><path d="m40.003906 360.996094h134.996094v-135c0-8.28125 6.714844-15 15-15h134.996094c8.285156 0 15 6.71875 15 15v135h132c8.28125 0 15-6.71875 15-15v-45h-57c-8.28125 0-15-6.714844-15-15s6.71875-15 15-15h57v-30h-57c-8.28125 0-15-6.714844-15-15 0-8.28125 6.71875-15 15-15h57v-65.996094c0-6.621094-4.339844-12.457031-10.679688-14.363281l-431.992187-130c-4.542969-1.367188-9.464844-.503907-13.269531 2.324219-3.808594 2.832031-6.050782 7.296874-6.050782 12.039062v76h56.953125c8.285157 0 15 6.714844 15 15 0 8.28125-6.714843 15-15 15h-56.953125v30h56.996094c8.285156 0 15 6.714844 15 15 0 8.28125-6.714844 14.996094-15 14.996094h-56.996094v30h56.996094c8.285156 0 15 6.71875 15 15 0 8.285156-6.714844 15-15 15h-56.996094v30h56.996094c8.285156 0 15 6.714844 15 15s-6.714844 15-15 15h-56.996094v45c0 8.285156 6.714844 15 15 15zm0 0"/></svg>